<?xml version="1.0" encoding="iso-8859-1"?>
<!-- Generator: Adobe Illustrator 19.0.0, SVG Export Plug-In . SVG Version: 6.00 Build 0)  -->
<svg version="1.1" id="Layer_1" xmlns="http://www.w3.org/2000/svg" xmlns:xlink="http://www.w3.org/1999/xlink" x="0px" y="0px"
	 viewBox="0 0 511.999 511.999" style="enable-background:new 0 0 511.999 511.999;" xml:space="preserve">
<circle style="fill:#FDDF6D;" cx="255.999" cy="236.276" r="236.276"/>
<path style="fill:#FCC56B;" d="M306.632,437.67c-130.491,0-236.275-105.783-236.275-236.275c0-69.717,30.201-132.372,78.226-175.619
	C72.091,64.886,19.725,144.465,19.725,236.275c0,130.491,105.783,236.275,236.275,236.275c60.775,0,116.184-22.953,158.048-60.654
	C381.821,428.373,345.313,437.67,306.632,437.67z"/>
<g>
	<path style="fill:#F9A880;" d="M156.328,220.652c-17.546,0-31.772,14.225-31.772,31.771h63.543
		C188.1,234.877,173.874,220.652,156.328,220.652z"/>
	<path style="fill:#F9A880;" d="M433.458,216.396c-17.546,0-31.772,14.225-31.772,31.772h63.543
		C465.229,230.62,451.004,216.396,433.458,216.396z"/>
</g>
<path style="fill:#7F184C;" d="M301.896,400.607L301.896,400.607c-52.82,0-95.64-42.82-95.64-95.64l0,0h191.279l0,0
	C397.536,357.787,354.717,400.607,301.896,400.607z"/>
<path style="fill:#F2F2F2;" d="M229.592,304.967v14.929c0,6.295,5.103,11.397,11.397,11.397h121.812
	c6.295,0,11.397-5.103,11.397-11.397v-14.929H229.592z"/>
<path style="fill:#FC4C59;" d="M330.285,352.788H263.08v0.112c-12.979,0.623-25.627,4.142-36.981,10.222
	c6.936,9.04,15.45,16.804,25.13,22.883c7.372,4.63,11.852,12.717,11.852,21.423v50.903c0,29.641,24.029,53.668,53.668,53.668l0,0
	c29.641,0,53.668-24.029,53.668-53.668v-65.41C370.418,370.756,352.45,352.788,330.285,352.788z"/>
<path style="fill:#BC3B4A;" d="M316.54,490.438c-5.31,0-9.612-4.302-9.612-9.612v-91.332c0-1.069-2.506-3.687-4.787-5.002
	c-4.646-2.571-6.293-8.401-3.722-13.045c2.571-4.646,8.455-6.305,13.099-3.737c1.498,0.829,14.635,8.483,14.635,21.785v91.332
	C326.152,486.136,321.849,490.438,316.54,490.438z"/>
<g>
	<path style="fill:#7F184C;" d="M180.472,206.233c-3.708,0-7.238-2.157-8.816-5.772c-2.121-4.866,0.103-10.531,4.969-12.653
		l39.432-17.195l-39.472-17.426c-4.856-2.144-7.055-7.819-4.911-12.676c2.145-4.856,7.818-7.054,12.676-4.911l59.512,26.273
		c3.49,1.54,5.739,5,5.73,8.815c-0.009,3.817-2.272,7.264-5.77,8.789l-59.512,25.952
		C183.06,205.974,181.755,206.233,180.472,206.233z"/>
	<path style="fill:#7F184C;" d="M427.287,206.233c-1.283,0-2.586-0.258-3.837-0.804l-59.512-25.952
		c-3.497-1.525-5.761-4.974-5.77-8.789c-0.009-3.815,2.24-7.274,5.73-8.815L423.41,135.6c4.859-2.143,10.531,0.055,12.676,4.911
		c2.144,4.857-0.055,10.532-4.911,12.676l-39.472,17.426l39.432,17.195c4.866,2.122,7.09,7.787,4.969,12.653
		C434.527,204.075,430.994,206.233,427.287,206.233z"/>
</g>
<ellipse transform="matrix(0.2723 -0.9622 0.9622 0.2723 134.1141 327.3908)" style="fill:#FCEB88;" cx="283.507" cy="75.028" rx="27.554" ry="49.341"/>
<g>
</g>
<g>
</g>
<g>
</g>
<g>
</g>
<g>
</g>
<g>
</g>
<g>
</g>
<g>
</g>
<g>
</g>
<g>
</g>
<g>
</g>
<g>
</g>
<g>
</g>
<g>
</g>
<g>
</g>
</svg>
